# xmcd
#
# Track frame offsets: 
#        150
#        29751
#        43697
#        57226
#        70693
#        94743
#        109429
#        122908
#        142913
#        159527
#        172289
#        185946
#        196918
#
# Disc length: 2871 seconds
#
# Revision: 0
# Processed by: cddbd v1.5.1PL2 Copyright (c) Steve Scherf et al.
# Submitted via: ExactAudioCopy v0.95b4
#
DISCID=c70b350d
DTITLE=Rene Miller's Wedding Band - Our Very Best Vol. 2
DYEAR=1900
DGENRE=Blues
TTITLE0=Kind Hearted Woman
TTITLE1=Come Together
TTITLE2=You Got to Move
TTITLE3=Oh Lord, Search My Heart
TTITLE4=What A Wonderfull World
TTITLE5=For me, Formidable
TTITLE6=Get Ready
TTITLE7=Love Changin' blues
TTITLE8=Your Cheatin' Heart
TTITLE9=La Javanaise
TTITLE10=Cinderella
TTITLE11=Baby it Must be Love
TTITLE12=Irene Godnight
EXTD=
EXTT0=
EXTT1=
EXTT2=
EXTT3=
EXTT4=
EXTT5=
EXTT6=
EXTT7=
EXTT8=
EXTT9=
EXTT10=
EXTT11=
EXTT12=
PLAYORDER=
